<svg xmlns="http://www.w3.org/2000/svg" viewBox="0 0 192 600" width="192" height="600">
	<defs>
		<clipPath clipPathUnits="userSpaceOnUse" id="cp1">
			<path d="M-2.1 0L189.9 0L189.9 600L-2.1 600L-2.1 0Z" />
		</clipPath>
	</defs>
	<style>
		tspan { white-space:pre }
		.shp0 { fill: #ffffff } 
		.shp1 { fill: #c87072 } 
		.shp2 { fill: #6d2128 } 
		.shp3 { fill: #e79c00 } 
	</style>
	<g id="Clip-Path" clip-path="url(#cp1)">
		<g id="Layer">
			<path id="Layer" class="shp0" d="M-0.1 0L191.9 0L191.9 600L-0.1 600L-0.1 0Z" />
			<path id="Layer" class="shp1" d="M22.65 651.4C-21.29 651.4 -56.8 615.89 -56.8 571.95C-56.8 528.01 -21.29 492.5 22.65 492.5C66.59 492.5 102.1 528.01 102.1 571.95C102.1 615.89 66.59 651.4 22.65 651.4Z" />
			<path id="Layer" class="shp2" d="M23.3 325.3C18.27 325.3 14.2 321.23 14.2 316.2C14.2 311.17 18.27 307.1 23.3 307.1C28.33 307.1 32.4 311.17 32.4 316.2C32.4 321.23 28.33 325.3 23.3 325.3Z" />
			<path id="Layer copy 5" class="shp2" d="M99.3 510.3C94.27 510.3 90.2 506.23 90.2 501.2C90.2 496.17 94.27 492.1 99.3 492.1C104.33 492.1 108.4 496.17 108.4 501.2C108.4 506.23 104.33 510.3 99.3 510.3Z" />
			<path id="Layer" class="shp3" d="M137.95 164.9C127.47 164.9 119 156.43 119 145.95C119 135.47 127.47 127 137.95 127C148.43 127 156.9 135.47 156.9 145.95C156.9 156.43 148.43 164.9 137.95 164.9Z" />
			<path id="Layer copy 2" class="shp3" d="M27.95 406.9C17.47 406.9 9 398.43 9 387.95C9 377.47 17.47 369 27.95 369C38.43 369 46.9 377.47 46.9 387.95C46.9 398.43 38.43 406.9 27.95 406.9Z" />
			<path id="Layer" class="shp3" d="M175.5 481C134.91 481 102.1 448.19 102.1 407.6C102.1 367.01 134.91 334.2 175.5 334.2C216.09 334.2 248.9 367.01 248.9 407.6C248.9 448.19 216.09 481 175.5 481Z" />
			<path id="Layer copy 3" class="shp3" d="M11.5 300C-29.09 300 -61.9 267.19 -61.9 226.6C-61.9 186.01 -29.09 153.2 11.5 153.2C52.09 153.2 84.9 186.01 84.9 226.6C84.9 267.19 52.09 300 11.5 300Z" />
			<path id="Layer" class="shp1" d="M172.1 96.2C156.56 96.2 144 83.64 144 68.1C144 52.56 156.56 40 172.1 40C187.64 40 200.2 52.56 200.2 68.1C200.2 83.64 187.64 96.2 172.1 96.2Z" />
			<path id="Layer copy 4" class="shp1" d="M143.1 253.2C127.56 253.2 115 240.64 115 225.1C115 209.56 127.56 197 143.1 197C158.64 197 171.2 209.56 171.2 225.1C171.2 240.64 158.64 253.2 143.1 253.2Z" />
			<path id="Layer copy" class="shp1" d="M31.7 133C5.54 133 -15.6 112.71 -15.6 87.6C-15.6 62.49 5.54 42.2 31.7 42.2C57.86 42.2 79 62.49 79 87.6C79 112.71 57.86 133 31.7 133Z" />
		</g>
	</g>
</svg>